<svg width="647" height="969" viewBox="0 0 647 969" fill="none" xmlns="http://www.w3.org/2000/svg">
<path d="M26.2113 585.4C26.2113 580.8 25.2113 577.5 23.2113 575.5C21.2113 573.5 17.6113 572 12.4113 571C13.6113 566.8 14.7113 563.4 15.7113 560.8C16.9113 558.2 18.4113 556.2 20.2113 554.8C22.0113 553.2 24.1113 552.2 26.5113 551.8C29.1113 551.2 32.4113 550.9 36.4113 550.9H148.311C147.111 556.3 146.011 560.6 145.011 563.8C144.011 567 142.411 569.8 140.211 572.2C138.011 574.4 134.811 576.5 130.611 578.5C126.611 580.3 120.911 582.6 113.511 585.4C114.311 582.8 114.711 580.3 114.711 577.9C114.711 575.3 112.211 574 107.211 574H79.6113C72.2113 574 68.5113 577.8 68.5113 585.4V628H109.611C113.611 628 116.311 627.9 117.711 627.7C119.111 627.3 121.211 626.6 124.011 625.6C122.611 634.6 120.411 641 117.411 644.8C114.411 648.4 110.011 650.2 104.211 650.2H68.5113V709C68.5113 720.6 72.8113 726.4 81.4113 726.4H129.711C133.711 726.4 137.111 726.2 139.911 725.8C142.711 725.4 146.511 724.6 151.311 723.4C148.911 734 146.111 741.6 142.911 746.2C140.911 749.4 137.411 751 132.411 751H19.0113C20.6113 744.6 21.9113 739.4 22.9113 735.4C23.9113 731.2 24.6113 727.5 25.0113 724.3C25.6113 721.1 25.9113 718 25.9113 715C26.1113 711.8 26.2113 708 26.2113 703.6V585.4ZM178.551 638.8C178.551 637.333 178.418 636.2 178.151 635.4C178.018 634.467 177.618 633.733 176.951 633.2C176.285 632.667 175.285 632.2 173.951 631.8C172.618 631.4 170.818 630.933 168.551 630.4C169.618 627.467 170.551 625.133 171.351 623.4C172.285 621.667 173.218 620.333 174.151 619.4C175.218 618.333 176.351 617.667 177.551 617.4C178.751 617 180.218 616.8 181.951 616.8H211.551C210.351 619.733 209.418 622.267 208.751 624.4C208.085 626.533 207.551 628.6 207.151 630.6C206.751 632.6 206.485 634.733 206.351 637C206.218 639.133 206.151 641.733 206.151 644.8V720.8C206.151 724 206.351 726.533 206.751 728.4C207.285 730.267 208.285 731.733 209.751 732.8C211.218 733.867 213.285 734.6 215.951 735C218.618 735.267 222.151 735.4 226.551 735.4C229.085 735.4 231.285 735.333 233.151 735.2C235.151 734.933 237.018 734.6 238.751 734.2C240.618 733.667 242.418 733 244.151 732.2C246.018 731.267 248.151 730.067 250.551 728.6C249.751 731.8 248.818 734.6 247.751 737C246.685 739.4 245.218 742.133 243.351 745.2C241.885 747.467 239.885 749.067 237.351 750C234.818 750.933 231.018 751.4 225.951 751.4C224.885 751.4 223.418 751.333 221.551 751.2C219.685 751.2 217.951 751.133 216.351 751C210.885 750.6 207.351 750.4 205.751 750.4H192.751H180.551L172.751 751C174.618 746.467 176.018 741.8 176.951 737C178.018 732.067 178.551 727.467 178.551 723.2V638.8ZM271.911 638.8C271.911 637.333 271.777 636.2 271.511 635.4C271.377 634.467 270.977 633.733 270.311 633.2C269.644 632.667 268.644 632.2 267.311 631.8C265.977 631.4 264.177 630.933 261.911 630.4C262.977 627.467 263.911 625.133 264.711 623.4C265.644 621.667 266.577 620.333 267.511 619.4C268.577 618.333 269.711 617.667 270.911 617.4C272.111 617 273.577 616.8 275.311 616.8H304.911C303.711 619.733 302.777 622.267 302.111 624.4C301.444 626.533 300.911 628.6 300.511 630.6C300.111 632.6 299.844 634.733 299.711 637C299.577 639.133 299.511 641.733 299.511 644.8V720.8C299.511 724 299.711 726.533 300.111 728.4C300.644 730.267 301.644 731.733 303.111 732.8C304.577 733.867 306.644 734.6 309.311 735C311.977 735.267 315.511 735.4 319.911 735.4C322.444 735.4 324.644 735.333 326.511 735.2C328.511 734.933 330.377 734.6 332.111 734.2C333.977 733.667 335.777 733 337.511 732.2C339.377 731.267 341.511 730.067 343.911 728.6C343.111 731.8 342.177 734.6 341.111 737C340.044 739.4 338.577 742.133 336.711 745.2C335.244 747.467 333.244 749.067 330.711 750C328.177 750.933 324.377 751.4 319.311 751.4C318.244 751.4 316.777 751.333 314.911 751.2C313.044 751.2 311.311 751.133 309.711 751C304.244 750.6 300.711 750.4 299.111 750.4H286.111H273.911L266.111 751C267.977 746.467 269.377 741.8 270.311 737C271.377 732.067 271.911 727.467 271.911 723.2V638.8ZM399.07 617.6C397.87 621.733 396.87 625.067 396.07 627.6C395.403 630 394.87 632.067 394.47 633.8C394.203 635.533 394.003 637.2 393.87 638.8C393.87 640.4 393.87 642.4 393.87 644.8L394.07 728C394.07 731.2 394.537 733.4 395.47 734.6C396.537 735.8 398.803 736.867 402.27 737.8C400.803 741.133 399.67 743.733 398.87 745.6C398.07 747.333 397.203 748.6 396.27 749.4C395.47 750.2 394.47 750.667 393.27 750.8C392.203 750.933 390.67 751 388.67 751H360.27C361.203 747.267 362.003 744.067 362.67 741.4C363.337 738.6 363.803 736 364.07 733.6C364.47 731.2 364.737 728.867 364.87 726.6C365.003 724.2 365.07 721.467 365.07 718.4L364.87 641.2C364.87 639.333 364.803 637.867 364.67 636.8C364.537 635.6 364.203 634.733 363.67 634.2C363.137 633.533 362.337 633 361.27 632.6C360.203 632.2 358.67 631.733 356.67 631.2C357.737 628.267 358.67 625.933 359.47 624.2C360.403 622.333 361.403 620.933 362.47 620C363.67 618.933 365.07 618.267 366.67 618C368.27 617.733 370.27 617.6 372.67 617.6H399.07ZM472.951 631C465.751 631 460.218 635.4 456.351 644.2C452.618 653 450.751 665.733 450.751 682.4C450.751 690.933 451.285 698.6 452.351 705.4C453.418 712.2 454.951 718 456.951 722.8C458.951 727.6 461.351 731.267 464.151 733.8C467.085 736.333 470.351 737.6 473.951 737.6C480.885 737.6 486.085 733.133 489.551 724.2C493.151 715.267 494.951 701.933 494.951 684.2C494.951 680.2 494.818 676.667 494.551 673.6C494.418 670.533 494.151 667.6 493.751 664.8C493.351 662 492.818 659.333 492.151 656.8C491.485 654.133 490.618 651.333 489.551 648.4C485.418 636.8 479.885 631 472.951 631ZM472.351 615.4C480.885 615.4 488.551 617.067 495.351 620.4C502.151 623.6 507.885 628.2 512.551 634.2C517.351 640.2 521.018 647.533 523.551 656.2C526.085 664.867 527.351 674.6 527.351 685.4C527.351 695.8 526.085 705.133 523.551 713.4C521.018 721.667 517.351 728.733 512.551 734.6C507.885 740.333 502.151 744.8 495.351 748C488.551 751.067 480.885 752.6 472.351 752.6C464.618 752.6 457.485 751.067 450.951 748C444.418 744.933 438.751 740.4 433.951 734.4C424.085 722.4 419.151 705.4 419.151 683.4C419.151 657.933 425.818 639.333 439.151 627.6C443.818 623.6 448.951 620.6 454.551 618.6C460.151 616.467 466.085 615.4 472.351 615.4ZM548.506 633.6C545.839 633.6 543.573 633.8 541.706 634.2C539.973 634.467 537.573 635.133 534.506 636.2C535.573 632.2 536.639 629 537.706 626.6C538.906 624.067 540.306 622.133 541.906 620.8C543.639 619.333 545.706 618.4 548.106 618C550.506 617.467 553.573 617.2 557.306 617.2C557.839 617.2 558.906 617.2 560.506 617.2C562.106 617.2 563.973 617.267 566.106 617.4C568.639 617.533 571.173 617.6 573.706 617.6C576.373 617.6 579.173 617.6 582.106 617.6H621.106C623.106 617.6 624.906 617.6 626.506 617.6C628.239 617.467 629.906 617.333 631.506 617.2C633.106 617.067 634.773 616.933 636.506 616.8C638.373 616.533 640.439 616.267 642.706 616C641.906 620.133 640.839 623.467 639.506 626C638.306 628.533 636.706 630.6 634.706 632.2C633.773 633 632.639 633.533 631.306 633.8C630.106 634.067 627.839 634.267 624.506 634.4L616.306 634.6C615.106 634.6 612.839 634.4 609.506 634L605.906 633.8C602.573 633.8 600.906 635.867 600.906 640V726.2V732.4C601.039 735.2 603.639 737.4 608.706 739C607.906 741.8 607.173 744 606.506 745.6C605.973 747.2 605.239 748.4 604.306 749.2C603.373 750 602.239 750.533 600.906 750.8C599.573 750.933 597.706 751 595.306 751H568.306C569.106 747.8 569.773 744.933 570.306 742.4C570.839 739.867 571.239 737.4 571.506 735C571.906 732.6 572.173 730.2 572.306 727.8C572.439 725.4 572.506 722.8 572.506 720V639.6C572.506 636.933 571.973 635.267 570.906 634.6C569.973 633.933 567.506 633.6 563.506 633.6H548.506ZM149.39 888.9C149.39 888.167 149.323 887.6 149.19 887.2C149.123 886.733 148.923 886.367 148.59 886.1C148.257 885.833 147.757 885.6 147.09 885.4C146.423 885.2 145.523 884.967 144.39 884.7C144.923 883.233 145.39 882.067 145.79 881.2C146.257 880.333 146.723 879.667 147.19 879.2C147.723 878.667 148.29 878.333 148.89 878.2C149.49 878 150.223 877.9 151.09 877.9H165.89C165.29 879.367 164.823 880.633 164.49 881.7C164.157 882.767 163.89 883.8 163.69 884.8C163.49 885.8 163.357 886.867 163.29 888C163.223 889.067 163.19 890.367 163.19 891.9V929.9C163.19 931.5 163.29 932.767 163.49 933.7C163.757 934.633 164.257 935.367 164.99 935.9C165.723 936.433 166.757 936.8 168.09 937C169.423 937.133 171.19 937.2 173.39 937.2C174.657 937.2 175.757 937.167 176.69 937.1C177.69 936.967 178.623 936.8 179.49 936.6C180.423 936.333 181.323 936 182.19 935.6C183.123 935.133 184.19 934.533 185.39 933.8C184.99 935.4 184.523 936.8 183.99 938C183.457 939.2 182.723 940.567 181.79 942.1C181.057 943.233 180.057 944.033 178.79 944.5C177.523 944.967 175.623 945.2 173.09 945.2C172.557 945.2 171.823 945.167 170.89 945.1C169.957 945.1 169.09 945.067 168.29 945C165.557 944.8 163.79 944.7 162.99 944.7H156.49H150.39L146.49 945C147.423 942.733 148.123 940.4 148.59 938C149.123 935.533 149.39 933.233 149.39 931.1V888.9ZM267.765 901.7C267.298 899.967 266.832 898.3 266.365 896.7C265.898 895.1 265.398 893.533 264.865 892C263.932 894.533 263.098 896.8 262.365 898.8C261.632 900.733 260.932 902.667 260.265 904.6C259.665 906.533 258.998 908.633 258.265 910.9C257.532 913.1 256.698 915.733 255.765 918.8H272.765C272.165 916.2 271.465 913.833 270.665 911.7L267.765 901.7ZM238.865 945C239.465 943.533 239.965 942.333 240.365 941.4C240.765 940.4 241.065 939.567 241.265 938.9C241.532 938.167 241.765 937.467 241.965 936.8C242.165 936.133 242.398 935.333 242.665 934.4C243.265 932.133 243.898 929.833 244.565 927.5C245.298 925.167 246.032 922.833 246.765 920.5C247.565 918.1 248.332 915.7 249.065 913.3C249.398 912.033 249.732 910.8 250.065 909.6C250.465 908.333 250.832 907.1 251.165 905.9C251.832 903.633 252.565 901.433 253.365 899.3C253.565 898.767 253.698 898.4 253.765 898.2C253.832 898 253.865 897.833 253.865 897.7C253.932 897.567 253.998 897.4 254.065 897.2C254.198 897 254.365 896.633 254.565 896.1C255.232 894.3 255.765 892.867 256.165 891.8C256.565 890.733 256.865 889.9 257.065 889.3C257.265 888.7 257.365 888.267 257.365 888C257.432 887.733 257.465 887.467 257.465 887.2C257.465 885.867 256.265 885.067 253.865 884.8C254.598 882.133 255.432 880.367 256.365 879.5C257.298 878.633 258.832 878.2 260.965 878.2H274.765C275.832 880.933 276.798 883.467 277.665 885.8C278.598 888.133 279.465 890.467 280.265 892.8C281.065 895.133 281.798 897.533 282.465 900C283.198 902.467 283.965 905.233 284.765 908.3C285.565 911.3 286.398 914.667 287.265 918.4C288.132 922.133 289.132 926.433 290.265 931.3C290.532 932.7 290.798 933.833 291.065 934.7C291.398 935.567 291.798 936.267 292.265 936.8C292.732 937.333 293.265 937.733 293.865 938C294.532 938.2 295.365 938.367 296.365 938.5C296.098 939.767 295.765 940.833 295.365 941.7C295.032 942.5 294.565 943.167 293.965 943.7C293.432 944.167 292.732 944.5 291.865 944.7C291.065 944.9 290.065 945 288.865 945H273.965C274.698 942.867 275.198 941.167 275.465 939.9C275.732 938.633 275.865 937.267 275.865 935.8C275.865 934.533 275.765 933.267 275.565 932C275.432 930.733 275.098 928.933 274.565 926.6H253.965C253.232 929.067 252.732 930.867 252.465 932C252.198 933.067 252.065 934.033 252.065 934.9C252.065 936.033 252.398 936.9 253.065 937.5C253.732 938.033 254.932 938.367 256.665 938.5C255.932 940.033 255.298 941.233 254.765 942.1C254.298 942.9 253.798 943.533 253.265 944C252.732 944.467 252.098 944.767 251.365 944.9C250.698 944.967 249.798 945 248.665 945H238.865ZM370.116 930.4C370.116 932.533 370.716 934.3 371.916 935.7C373.116 937.1 374.616 937.8 376.416 937.8C379.216 937.8 381.483 936.633 383.216 934.3C384.95 931.967 385.816 928.967 385.816 925.3C385.816 921.433 384.45 917.567 381.716 913.7C381.183 912.967 380.616 912.267 380.016 911.6C379.416 910.933 378.683 910.267 377.816 909.6C376.95 908.867 375.883 908.1 374.616 907.3C373.416 906.5 371.916 905.567 370.116 904.5V930.4ZM369.716 897.4C370.983 898.333 372.05 898.967 372.916 899.3C373.85 899.633 374.983 899.8 376.316 899.8C378.583 899.8 380.316 899.2 381.516 898C382.716 896.733 383.316 895 383.316 892.8C383.316 890 382.583 887.667 381.116 885.8C379.716 883.867 377.983 882.9 375.916 882.9C374.116 882.9 372.616 883.5 371.416 884.7C370.283 885.9 369.716 887.467 369.716 889.4V897.4ZM356.316 893.9C356.316 892.167 356.316 890.833 356.316 889.9C356.316 888.9 356.283 888.133 356.216 887.6C356.15 887 356.05 886.6 355.916 886.4C355.783 886.133 355.583 885.9 355.316 885.7C354.516 885.033 353.15 884.6 351.216 884.4C351.616 883.2 352.05 882.2 352.516 881.4C352.983 880.533 353.516 879.833 354.116 879.3C354.783 878.7 355.55 878.233 356.416 877.9C357.283 877.567 358.316 877.3 359.516 877.1C361.316 876.767 363.416 876.533 365.816 876.4C368.283 876.2 370.683 876.1 373.016 876.1C377.016 876.1 380.35 876.467 383.016 877.2C385.683 877.933 387.983 879.133 389.916 880.8C391.716 882.333 393.116 884.1 394.116 886.1C395.183 888.033 395.716 889.967 395.716 891.9C395.716 893.433 395.383 894.933 394.716 896.4C394.05 897.867 393.15 899.133 392.016 900.2C390.95 901.133 389.75 901.833 388.416 902.3C387.15 902.767 385.316 903.167 382.916 903.5C385.383 904.7 387.45 905.767 389.116 906.7C390.85 907.567 392.283 908.433 393.416 909.3C394.616 910.167 395.583 911.033 396.316 911.9C397.116 912.767 397.816 913.767 398.416 914.9C400.083 917.833 400.916 920.933 400.916 924.2C400.916 930.4 398.65 935.467 394.116 939.4C392.916 940.4 391.683 941.267 390.416 942C389.216 942.733 387.883 943.333 386.416 943.8C385.016 944.2 383.416 944.5 381.616 944.7C379.883 944.9 377.916 945 375.716 945C374.85 945 374.116 945 373.516 945C372.983 945 372.316 944.967 371.516 944.9C370.716 944.833 369.65 944.767 368.316 944.7C366.983 944.633 365.116 944.5 362.716 944.3L354.316 943.8C355.65 938.667 356.316 934.5 356.316 931.3V893.9ZM469.764 928.3C469.431 929.167 469.197 929.867 469.064 930.4C468.931 930.867 468.864 931.4 468.864 932C468.864 933.8 469.764 935.333 471.564 936.6C473.431 937.867 475.697 938.5 478.364 938.5C481.164 938.5 483.431 937.767 485.164 936.3C486.897 934.833 487.764 932.933 487.764 930.6C487.764 929.133 487.264 927.733 486.264 926.4C485.331 925.067 483.597 923.367 481.064 921.3C480.264 920.7 479.231 919.867 477.964 918.8C476.764 917.667 475.497 916.533 474.164 915.4C472.831 914.2 471.531 913.033 470.264 911.9C469.064 910.767 468.097 909.833 467.364 909.1C462.564 904.433 460.164 899.533 460.164 894.4C460.164 891.933 460.731 889.667 461.864 887.6C462.997 885.467 464.564 883.633 466.564 882.1C468.564 880.5 470.931 879.267 473.664 878.4C476.397 877.533 479.364 877.1 482.564 877.1C484.364 877.1 486.031 877.233 487.564 877.5C489.097 877.7 490.597 878.067 492.064 878.6C493.597 879.067 495.131 879.733 496.664 880.6C498.197 881.467 499.864 882.5 501.664 883.7C500.797 885.1 499.997 886.233 499.264 887.1C498.531 887.967 497.697 888.7 496.764 889.3C495.897 889.9 494.864 890.4 493.664 890.8C492.464 891.2 490.964 891.567 489.164 891.9C489.831 890.433 490.164 889.333 490.164 888.6C490.164 887.467 489.364 886.5 487.764 885.7C486.164 884.833 484.297 884.4 482.164 884.4C479.897 884.4 477.964 885.033 476.364 886.3C474.831 887.5 474.064 889 474.064 890.8C474.064 893.133 475.864 895.9 479.464 899.1C479.664 899.3 479.864 899.5 480.064 899.7C480.264 899.833 480.597 900.1 481.064 900.5C481.531 900.833 482.197 901.367 483.064 902.1C483.997 902.767 485.297 903.733 486.964 905C487.831 905.667 488.831 906.533 489.964 907.6C491.097 908.6 492.231 909.667 493.364 910.8C494.497 911.867 495.531 912.9 496.464 913.9C497.397 914.9 498.131 915.7 498.664 916.3C499.731 917.7 500.564 919.333 501.164 921.2C501.764 923.067 502.064 924.967 502.064 926.9C502.064 932.833 500.097 937.533 496.164 941C492.231 944.4 486.864 946.1 480.064 946.1C471.997 946.1 464.197 943.333 456.664 937.8C457.464 936.333 458.097 935.133 458.564 934.2C459.097 933.267 459.531 932.533 459.864 932C460.264 931.4 460.631 930.967 460.964 930.7C461.297 930.367 461.697 930.033 462.164 929.7C462.564 929.5 462.931 929.333 463.264 929.2C463.664 929.067 464.131 928.967 464.664 928.9C465.197 928.767 465.864 928.667 466.664 928.6C467.464 928.533 468.497 928.433 469.764 928.3Z" fill="black"/>
<path fill-rule="evenodd" clip-rule="evenodd" d="M280.134 169.039C280.134 141.131 288.344 115.144 302.47 93.3694C309.752 82.1457 318.606 72.0411 328.718 63.3694H207.964C198.766 63.3694 191.309 70.8395 191.309 80.0542V85.6157H158V80.0542C158 71.1791 160.306 62.8435 164.35 55.6157C172.902 40.3305 189.229 30 207.964 30H424.475V63.3694H418.923C387.305 63.3694 358.937 77.3058 339.604 99.3813C323.317 117.979 313.444 142.354 313.444 169.039V223.539L412.261 223.467C436.789 223.467 456.673 203.547 456.673 178.975C456.673 154.402 436.789 134.482 412.261 134.482C387.733 134.482 367.848 154.402 367.848 178.975V201.297H334.539V178.975C334.539 176.383 334.665 173.822 334.912 171.297C334.986 170.541 335.071 169.788 335.166 169.039C337.624 149.709 347.161 132.609 361.09 120.411C374.762 108.438 392.666 101.188 412.261 101.188C455.178 101.188 489.983 135.965 489.983 178.975C489.983 221.975 455.188 256.835 412.265 256.837L367.848 256.869V311.416C367.848 339.324 359.639 365.311 345.512 387.086C338.231 398.309 329.377 408.414 319.265 417.086H440.019C449.217 417.086 456.673 409.616 456.673 400.401V394.839H489.983V400.401C489.983 409.276 487.677 417.612 483.633 424.839C475.081 440.125 458.754 450.455 440.019 450.455H223.508V417.086H229.06C260.677 417.086 289.046 403.149 308.378 381.074C324.665 362.476 334.539 338.101 334.539 311.416V256.893L313.444 256.908V301.48C313.444 304.847 313.23 308.163 312.817 311.416C310.358 330.746 300.822 347.846 286.893 360.044C273.221 372.017 255.317 379.267 235.722 379.267C192.805 379.267 158 344.49 158 301.48C158 261.114 188.663 227.922 227.928 224.005C230.487 223.75 233.082 223.619 235.708 223.618H235.722L257.928 223.518V256.887L235.734 256.988H235.722C211.193 256.988 191.309 276.908 191.309 301.48C191.309 326.053 211.193 345.973 235.722 345.973C260.25 345.973 280.134 326.053 280.134 301.48V169.039ZM250.134 286.923L235.802 286.988H235.722C227.813 286.988 221.309 293.425 221.309 301.48C221.309 309.535 227.813 315.973 235.722 315.973C243.631 315.973 250.134 309.536 250.134 301.48V286.923ZM250.134 193.553V169.039C250.134 141.841 256.56 116.134 267.958 93.3694H221.309V115.616H128V80.0542C128 35.8925 163.75 0 207.964 0H454.475V79.7731C492.987 96.1934 519.983 134.407 519.983 178.975C519.983 238.486 471.819 286.823 412.287 286.837C412.28 286.837 412.273 286.837 412.266 286.837L397.848 286.847V311.416C397.848 338.614 391.423 364.321 380.025 387.086H426.673V364.839H519.983V400.401C519.983 444.563 484.232 480.455 440.019 480.455H193.508V400.682C154.995 384.262 128 346.048 128 301.48C128 241.986 176.138 193.659 235.647 193.618C235.666 193.618 235.684 193.618 235.702 193.618L250.134 193.553ZM397.848 193.478L412.25 193.467H412.261C420.17 193.467 426.673 187.03 426.673 178.975C426.673 170.92 420.17 164.482 412.261 164.482C404.352 164.482 397.848 170.92 397.848 178.975V193.478Z" fill="url(#paint0_linear_42_7)"/>
<defs>
<linearGradient id="paint0_linear_42_7" x1="323.991" y1="30" x2="323.991" y2="450.455" gradientUnits="userSpaceOnUse">
<stop offset="0.135417" stop-color="#FF6B00"/>
<stop offset="0.661458" stop-color="#BD00FF"/>
<stop offset="1" stop-color="#46DEFF"/>
</linearGradient>
</defs>
</svg>
