<svg width="55" height="34" viewBox="0 0 55 34" fill="none" xmlns="http://www.w3.org/2000/svg">
<path d="M0 11.87C0 5.09399 5.1479 0 11.9956 0C19.0861 0 24.9868 5.3583 24.9868 14.6332C24.9868 19.9675 23.0199 24.5809 19.6689 28.065C17.3135 30.4919 14.3024 32.3661 11.0243 33.4473C9.78587 33.8318 9.13024 34 8.15894 34C6.94481 34 6.09492 33.2311 6.09492 32.1498C6.09492 31.5731 6.28918 31.1166 6.70199 30.8042C7.04194 30.4438 7.64901 30.2276 8.42605 29.9873C13.9625 28.4975 18.1876 24.629 19.5232 20.2318H18.6976C16.755 22.4424 14.011 23.5477 11 23.5477C4.78366 23.5477 0 18.4537 0 11.87ZM30.0132 11.87C30.0132 5.09399 35.1369 0 42.0088 0C49.0993 0 55 5.3583 55 14.6332C55 19.9675 53.0331 24.5809 49.6578 28.065C47.3024 30.4919 44.2914 32.3661 41.0132 33.4473C39.7991 33.8318 39.1192 34 38.1965 34C36.9581 34 36.0839 33.2311 36.0839 32.1498C36.0839 31.5731 36.3024 31.1166 36.7152 30.8042C37.0552 30.4438 37.638 30.2276 38.415 29.9873C43.9514 28.4975 48.2009 24.629 49.5121 20.2318H48.7108C46.7196 22.4424 44.0243 23.5477 41.0132 23.5477C34.7969 23.5477 30.0132 18.4537 30.0132 11.87Z" fill="#FFFFFA" fill-opacity="0.05"/>
</svg>
