<svg width="392" height="481" viewBox="0 0 392 481" fill="none" xmlns="http://www.w3.org/2000/svg">
<path fill-rule="evenodd" clip-rule="evenodd" d="M152.134 169.039C152.134 141.131 160.344 115.144 174.47 93.3694C181.752 82.1457 190.606 72.0411 200.718 63.3694H79.964C70.7659 63.3694 63.3093 70.8395 63.3093 80.0542V85.6157H30V80.0542C30 71.1791 32.3057 62.8435 36.3497 55.6157C44.902 40.3305 61.2287 30 79.964 30H296.475V63.3694H290.923C259.305 63.3694 230.937 77.3058 211.604 99.3813C195.317 117.979 185.444 142.354 185.444 169.039V223.539L284.261 223.467C308.789 223.467 328.673 203.547 328.673 178.975C328.673 154.402 308.789 134.482 284.261 134.482C259.733 134.482 239.848 154.402 239.848 178.975V201.297H206.539V178.975C206.539 176.383 206.665 173.822 206.912 171.297C206.986 170.541 207.071 169.788 207.166 169.039C209.624 149.709 219.161 132.609 233.09 120.411C246.762 108.438 264.666 101.188 284.261 101.188C327.178 101.188 361.983 135.965 361.983 178.975C361.983 221.975 327.188 256.835 284.265 256.837L239.848 256.869V311.416C239.848 339.324 231.639 365.311 217.512 387.086C210.231 398.309 201.377 408.414 191.265 417.086H312.019C321.217 417.086 328.673 409.616 328.673 400.401V394.839H361.983V400.401C361.983 409.276 359.677 417.612 355.633 424.839C347.081 440.125 330.754 450.455 312.019 450.455H95.508V417.086H101.06C132.677 417.086 161.046 403.149 180.378 381.074C196.665 362.476 206.539 338.101 206.539 311.416V256.893L185.444 256.908V301.48C185.444 304.847 185.23 308.163 184.817 311.416C182.358 330.746 172.822 347.846 158.893 360.044C145.221 372.017 127.317 379.267 107.722 379.267C64.8048 379.267 30 344.49 30 301.48C30 261.114 60.663 227.922 99.928 224.005C102.487 223.75 105.082 223.619 107.708 223.618H107.722L129.928 223.518V256.887L107.734 256.988H107.722C83.1934 256.988 63.3093 276.908 63.3093 301.48C63.3093 326.053 83.1935 345.973 107.722 345.973C132.25 345.973 152.134 326.053 152.134 301.48V169.039ZM122.134 286.923L107.802 286.988H107.722C99.8129 286.988 93.3093 293.425 93.3093 301.48C93.3093 309.535 99.813 315.973 107.722 315.973C115.631 315.973 122.134 309.536 122.134 301.48V286.923ZM122.134 193.553V169.039C122.134 141.841 128.56 116.134 139.958 93.3694H93.3093V115.616H0V80.0542C0 35.8925 35.7501 0 79.964 0H326.475V79.7731C364.987 96.1934 391.983 134.407 391.983 178.975C391.983 238.486 343.819 286.823 284.287 286.837C284.28 286.837 284.273 286.837 284.266 286.837L269.848 286.847V311.416C269.848 338.614 263.423 364.321 252.025 387.086H298.673V364.839H391.983V400.401C391.983 444.563 356.232 480.455 312.019 480.455H65.508V400.682C26.9954 384.262 0 346.048 0 301.48C0 241.986 48.1376 193.659 107.647 193.618C107.666 193.618 107.684 193.618 107.702 193.618L122.134 193.553ZM269.848 193.478L284.25 193.467H284.261C292.17 193.467 298.673 187.03 298.673 178.975C298.673 170.92 292.17 164.482 284.261 164.482C276.352 164.482 269.848 170.92 269.848 178.975V193.478Z" fill="url(#paint0_linear_46_13)"/>
<defs>
<linearGradient id="paint0_linear_46_13" x1="195.991" y1="30" x2="195.991" y2="450.455" gradientUnits="userSpaceOnUse">
<stop offset="0.135417" stop-color="#FF6B00"/>
<stop offset="0.661458" stop-color="#BD00FF"/>
<stop offset="1" stop-color="#46DEFF"/>
</linearGradient>
</defs>
</svg>
