<svg width="23" height="27" viewBox="0 0 23 27" fill="none" xmlns="http://www.w3.org/2000/svg">
<path fill-rule="evenodd" clip-rule="evenodd" d="M4.59194 0.929876C4.71144 0.860883 4.86425 0.90183 4.93324 1.02133L6.22035 3.25077C7.33543 2.26931 8.82552 1.61064 10.4889 1.45021H12.0742C13.7377 1.61069 15.2278 2.26945 16.3429 3.25097L17.6302 1.02133C17.6992 0.901826 17.852 0.860883 17.9715 0.929879C18.091 0.998876 18.132 1.15168 18.063 1.27119L16.7154 3.60519C17.746 4.66459 18.3741 6.02949 18.3949 7.52166H4.1682C4.18899 6.02934 4.81716 4.66438 5.84784 3.60498L4.50048 1.27118C4.43148 1.15168 4.47243 0.998869 4.59194 0.929876ZM9.30079 20.6199H13.2626V24.675C13.2626 25.5462 13.9689 26.2524 14.84 26.2524C15.7112 26.2524 16.4174 25.5462 16.4174 24.675V20.6199H16.4945C17.5781 20.6199 18.4508 19.7315 18.4508 18.629V8.37665C18.4508 8.3155 18.4486 8.2548 18.4435 8.19521H4.12211C4.11691 8.25502 4.11237 8.3155 4.11237 8.37665V18.629C4.11237 19.7316 4.98511 20.6199 6.06854 20.6199H6.146V24.675C6.146 25.5462 6.85226 26.2523 7.72334 26.2523C8.59453 26.2523 9.30079 25.5462 9.30079 24.675V20.6199ZM1.57788 9.10753C2.44896 9.10753 3.15522 9.81379 3.15522 10.685V17.4518C3.15522 18.323 2.44896 19.0293 1.57788 19.0293C0.706687 19.0293 0.000427246 18.323 0.000427246 17.4519V10.6851C0.000316517 9.8139 0.706576 9.10753 1.57788 9.10753ZM20.9855 9.10753C21.8566 9.10753 22.5629 9.81379 22.5629 10.685V17.4518C22.5629 18.323 21.8566 19.0293 20.9855 19.0293C20.1143 19.0293 19.4081 18.323 19.4081 17.4519V10.6851C19.4081 9.8139 20.1143 9.10753 20.9855 9.10753ZM8.3487 5.49876C8.79952 5.49754 9.16384 5.13965 9.16251 4.69945V4.69502C9.16118 4.25461 8.79476 3.89893 8.34415 3.90015C7.89344 3.90137 7.52912 4.25915 7.53034 4.69945V4.70389C7.53167 5.14408 7.89809 5.49987 8.3487 5.49876ZM14.4405 5.49876C14.8913 5.49754 15.2557 5.13965 15.2543 4.69945V4.69502C15.253 4.25461 14.8866 3.89893 14.436 3.90015C13.9853 3.90137 13.6209 4.25915 13.6222 4.69945V4.70389C13.6235 5.14408 13.9899 5.49987 14.4405 5.49876Z" fill="white"/>
</svg>
