<svg width="1267" height="317" viewBox="0 0 1267 317" fill="none" xmlns="http://www.w3.org/2000/svg">
<g clip-path="url(#clip0_469_607)">
<path d="M394.419 235.637V92.7014H412.791L500.108 207.804V92.7014H517.571V235.637H499.2L411.777 119.403V235.637H394.313H394.419ZM659.824 229.962C647.918 234.366 635.32 236.595 622.627 236.545C570.912 236.545 545.044 211.798 545.044 162.082C545.044 115.092 569.994 91.4756 620.008 91.4756C634.304 91.4756 647.671 93.515 659.919 97.393V113.285C647.671 108.53 634.97 106.248 622.036 106.248C583.023 106.248 563.511 124.866 563.511 161.638C563.511 201.369 582.79 221.129 621.128 221.129C627.251 221.129 634.062 220.22 641.547 218.635V170.736H659.919V229.984L659.824 229.962ZM689.313 180.468V92.6168H707.685V180.468C707.685 207.941 721.411 221.678 748.862 221.678C776.082 221.678 790.04 207.941 790.04 180.468V92.6168H808.411V180.468C808.411 217.927 788.667 236.767 748.968 236.767C709.269 236.767 689.524 217.927 689.524 180.468H689.313ZM859.45 92.7014V220.843H934.415V235.827H841.184V92.7014H859.556H859.45ZM960.853 235.721H941.573L1012.55 73.9667L1083.55 235.827H1063.13L1044.76 190.876H997.564L1002.56 175.893H1038.63L1011.86 111.193L960.81 235.827L960.853 235.721ZM1103.31 235.721V92.7014H1164.33C1191.55 92.7014 1205.16 104.05 1205.16 126.98C1205.16 145.598 1191.77 159.44 1165.25 168.19L1214.24 235.605H1189.96L1144.59 171.36V159.557C1171.81 155.245 1185.77 144.806 1185.77 128.005C1185.77 114.839 1178.38 108.245 1163.09 108.245H1122.26V235.637H1103.43L1103.31 235.721Z" fill="#1A1A1C"/>
<path d="M52.7917 54.5675L199.099 2.36816L349.27 53.6693L324.986 247.314L199.099 317.001L75.2493 248.318L52.7917 54.5675Z" fill="#E23237"/>
<path d="M349.269 53.6591L199.098 2.35791V317.002L324.995 247.304L349.269 53.6591Z" fill="#B52E31"/>
<path d="M199.343 39.127L108.14 241.975L142.17 241.299L160.541 195.44H241.978L262.039 241.753L294.474 242.43L199.428 39.0214L199.343 39.127ZM199.554 104.281L230.406 168.759H172.546L199.554 104.302V104.281Z" fill="white"/>
</g>
<defs>
<clipPath id="clip0_469_607">
<rect width="1267" height="317" fill="white"/>
</clipPath>
</defs>
</svg>
