<svg width="123" height="35" viewBox="0 0 123 35" fill="none" xmlns="http://www.w3.org/2000/svg">
<g clip-path="url(#clip0_272_441)">
<path d="M36.9192 26.6524H34.6183V8.68779H45.0679V10.8949H36.9195V16.7929H44.2693V18.9491H36.9195V26.6524L36.9192 26.6524ZM49.3942 11.2732C48.8457 11.826 47.9844 11.9129 47.3373 11.4806C46.6902 11.0484 46.4376 10.2174 46.7341 9.49632C47.0306 8.77518 47.7935 8.3647 48.5561 8.5161C49.3186 8.66751 49.8684 9.3386 49.8689 10.1187C49.8763 10.5532 49.7037 10.9712 49.3923 11.2732H49.3943H49.3942ZM49.3942 26.6524H47.0933V14.3585H49.3942V26.6524V26.6524ZM54.4432 26.6524H52.1423V14.3585H54.3416V16.3657H54.4412C54.7069 15.6584 55.2171 15.0705 55.8788 14.7094C56.5107 14.3023 57.2415 14.0765 57.9921 14.0566C58.5814 14.0398 59.168 14.1425 59.7168 14.3585L58.8418 16.5146C58.4471 16.3828 58.0325 16.3231 57.6171 16.3382C56.7734 16.3425 55.9705 16.7024 55.4042 17.33C54.7622 17.9912 54.4413 18.857 54.4413 19.9272L54.4432 26.6524L54.4432 26.6524ZM66.0217 27.0444C64.1714 27.0444 62.6674 26.4257 61.5098 25.1884C60.3523 23.951 59.7728 22.3899 59.7715 20.5056C59.7375 18.809 60.3398 17.1615 61.4591 15.8895C62.531 14.6234 64.1168 13.9128 65.7717 13.9565C67.5881 13.9565 69.0426 14.5505 70.1351 15.7383C71.2276 16.9261 71.7731 18.5152 71.7716 20.5054L71.7462 20.9327H62.0682C62.1346 22.1701 62.5473 23.1502 63.3065 23.8729C64.0164 24.5722 64.9739 24.96 65.9684 24.951C67.6182 24.951 68.7348 24.2483 69.3181 22.8438L71.369 23.6965C70.9534 24.6685 70.2679 25.5 69.3943 26.0917C68.4764 26.7268 67.352 27.0444 66.0212 27.0444L66.0217 27.0444ZM69.3226 19.0079C69.2731 18.3049 68.9521 17.6358 68.3597 17.0007C67.7672 16.3656 66.8863 16.0546 65.717 16.0677C64.906 16.0534 64.1182 16.3395 63.5041 16.8713C62.8607 17.4371 62.4105 18.1913 62.2169 19.0275L69.3226 19.0079L69.3226 19.0079ZM80.0846 27.0444C79.2141 27.0617 78.3531 26.8595 77.5807 26.4564C76.9023 26.113 76.3282 25.5931 75.9185 24.951H75.8189V26.6524H73.6177V8.68779H75.9185V14.3585L75.8189 16.0638H75.9185C76.3283 15.4217 76.9023 14.9018 77.5807 14.5584C78.352 14.1506 79.213 13.9436 80.0847 13.9567C81.668 13.9567 83.0353 14.5839 84.1864 15.8384C85.3374 17.0929 85.9123 18.6486 85.911 20.5055C85.9098 22.3623 85.3362 23.918 84.1864 25.1725C83.0366 26.427 81.6693 27.051 80.0847 27.0444L80.0846 27.0444ZM79.7096 24.9373C80.7577 24.9456 81.7591 24.5024 82.4597 23.72C83.2266 22.9085 83.6101 21.8337 83.6101 20.4956C83.6101 19.1575 83.2266 18.0827 82.4597 17.2712C81.751 16.4981 80.7529 16.0573 79.7063 16.0551C78.6596 16.0528 77.6597 16.4894 76.9478 17.2594C76.1899 18.0617 75.811 19.1404 75.811 20.4955C75.811 21.8507 76.1938 22.9326 76.9594 23.7415C77.6644 24.521 78.6685 24.9598 79.7174 24.947L79.7096 24.9372L79.7096 24.9373ZM91.7686 27.0444C90.4665 27.0444 89.3792 26.6681 88.5068 25.9154C87.6344 25.1627 87.1968 24.1676 87.1943 22.9301C87.1943 21.592 87.7112 20.5427 88.7451 19.7821C89.779 19.0216 91.0537 18.6413 92.5694 18.6413C93.9197 18.6413 95.0268 18.8922 95.8898 19.394V19.0432C95.9228 18.2168 95.5827 17.4197 94.964 16.8733C94.3341 16.3288 93.5235 16.0414 92.6925 16.0677C92.0566 16.0597 91.4302 16.2241 90.8799 16.544C90.3644 16.8306 89.9692 17.2941 89.7666 17.8495L87.667 16.9458C87.9508 16.2075 88.5095 15.5228 89.3454 14.8916C90.1814 14.2605 91.2791 13.9468 92.6463 13.9508C94.2089 13.9508 95.511 14.4081 96.5527 15.3228C97.5944 16.2375 98.1113 17.5339 98.1035 19.2117V26.6524H95.8964V24.9471H95.7968C94.8789 26.3453 93.537 27.0418 91.7713 27.0418L91.7686 27.0444ZM92.1436 24.9373C93.1105 24.9339 94.0386 24.5553 94.7335 23.8807C95.4742 23.2541 95.9028 22.3322 95.9055 21.36C95.2544 20.8242 94.2778 20.5563 92.9757 20.5563C91.8584 20.5563 91.0166 20.7987 90.4502 21.2835C89.9216 21.6913 89.6085 22.3198 89.6006 22.9888C89.5898 23.5711 89.8871 24.1157 90.3821 24.4197C90.9024 24.7708 91.5169 24.9547 92.1439 24.947V24.9372L92.1436 24.9373ZM104.869 27.0444C103.501 27.0444 102.372 26.7099 101.482 26.0408C100.615 25.3985 99.9399 24.531 99.5286 23.5318L101.58 22.6792C102.231 24.2186 103.337 24.9882 104.9 24.9882C105.521 25.0138 106.134 24.8475 106.658 24.5119C107.09 24.2429 107.35 23.7674 107.345 23.2574C107.345 22.4551 106.787 21.9115 105.667 21.6266L103.192 21.0248C102.378 20.8086 101.619 20.4196 100.967 19.8841C100.274 19.3411 99.8827 18.4964 99.9167 17.6142C99.9167 16.5271 100.396 15.6449 101.354 14.968C102.357 14.2774 103.551 13.9221 104.766 13.9527C105.781 13.9364 106.782 14.1929 107.665 14.6956C108.498 15.1705 109.143 15.9196 109.489 16.8164L107.491 17.6358C107.042 16.5486 106.108 16.0049 104.69 16.0049C104.087 15.9848 103.49 16.1327 102.966 16.4322C102.536 16.6557 102.266 17.101 102.266 17.5868C102.266 18.2898 102.808 18.7668 103.891 19.0176L106.315 19.5959C107.465 19.8572 108.315 20.3146 108.866 20.968C109.4 21.5783 109.693 22.3632 109.69 23.1751C109.701 24.2575 109.2 25.2812 108.341 25.9349C107.441 26.6746 106.283 27.0444 104.866 27.0444L104.869 27.0444ZM117.244 27.0444C115.394 27.0444 113.89 26.4257 112.732 25.1884C111.575 23.951 110.995 22.3865 110.994 20.4956C110.96 18.799 111.562 17.1515 112.681 15.8795C113.757 14.6166 115.345 13.9098 117 13.9566C118.823 13.9566 120.277 14.5506 121.363 15.7384C122.449 16.9262 122.995 18.5153 123 20.5054L122.975 20.9328H113.289C113.355 22.1702 113.768 23.1503 114.527 23.8729C115.239 24.5722 116.199 24.9587 117.195 24.9471C118.845 24.9471 119.961 24.2444 120.545 22.8399L122.595 23.6926C122.18 24.6647 121.494 25.4962 120.621 26.0878C119.703 26.7255 118.577 27.0444 117.244 27.0444L117.244 27.0444ZM120.545 19.0079C120.495 18.3049 120.174 17.6358 119.582 17.0007C118.99 16.3656 118.11 16.0546 116.943 16.0677C116.132 16.0536 115.344 16.3397 114.73 16.8713C114.087 17.4371 113.637 18.1913 113.443 19.0275L120.545 19.0079V19.0079Z" fill="#1D1D1F"/>
<path d="M0.218536 28.0314L4.44937 0.660344C4.50109 0.324662 4.75931 0.0600413 5.09059 0.00313975C5.42188 -0.0537618 5.75201 0.109943 5.91042 0.409537L10.2858 8.66034L12.0299 5.30312C12.1649 5.04354 12.4312 4.881 12.7213 4.881C13.0115 4.881 13.2777 5.04354 13.4128 5.30312L25.2205 28.0314H0.218536V28.0314Z" fill="#FFA000"/>
<path d="M14.835 17.3694L10.2838 8.65649L0.218567 28.0315L14.835 17.3694Z" fill="#F57C00"/>
<path d="M25.2207 28.0314L21.9802 7.75787C21.9312 7.46674 21.7257 7.22757 21.4474 7.13742C21.1691 7.04727 20.8645 7.12231 20.6578 7.33103L0.218567 28.0311L11.5281 34.4434C12.2383 34.8443 13.1032 34.8443 13.8134 34.4434L25.2207 28.0311V28.0314Z" fill="#FFCA28"/>
<path d="M21.9802 7.75791C21.9312 7.46677 21.7257 7.2276 21.4474 7.13745C21.1691 7.0473 20.8645 7.12234 20.6578 7.33106L16.6011 11.4429L13.4111 5.30303C13.276 5.04344 13.0097 4.88091 12.7196 4.88091C12.4295 4.88091 12.1632 5.04344 12.0281 5.30303L10.2841 8.66024L5.90846 0.409576C5.7498 0.109902 5.41927 -0.0535376 5.08759 0.00378817C4.75591 0.0611139 4.49855 0.326398 4.44741 0.662345L0.218548 28.0315H0.20491L0.218548 28.0473L0.329877 28.1026L20.6519 7.53277C20.8585 7.3229 21.1638 7.24746 21.4429 7.33735C21.7219 7.42723 21.9278 7.66733 21.9762 7.95931L25.1894 28.0512L25.2207 28.0314L21.9802 7.75785L21.9802 7.75791ZM0.255658 27.994L4.44938 0.855906C4.50047 0.519959 4.75843 0.254675 5.08982 0.197349C5.42121 0.140023 5.75176 0.303409 5.91069 0.603137L10.2858 8.85394L12.0299 5.49672C12.1649 5.23714 12.4312 5.0746 12.7214 5.0746C13.0115 5.0746 13.2777 5.23714 13.4128 5.49672L16.5381 11.5061L0.255474 27.994H0.255658Z" fill="white" fill-opacity="0.2"/>
<path opacity="0.2" d="M13.8134 34.2502C13.1032 34.6511 12.2383 34.6511 11.5281 34.2502L0.24589 27.8557L0.218536 28.0315L11.5281 34.4418C12.2383 34.8427 13.1032 34.8427 13.8134 34.4418L25.2206 28.0315L25.1913 27.8499L13.8134 34.2503V34.2502Z" fill="#A52714"/>
<path d="M21.9478 7.76209C21.899 7.47103 21.6942 7.23179 21.4168 7.14217C21.1395 7.05255 20.836 7.12705 20.63 7.33573L16.5872 11.4455L13.4086 5.30846C13.274 5.04898 13.0087 4.8865 12.7196 4.8865C12.4305 4.8865 12.1652 5.04898 12.0306 5.30846L10.2924 8.66421L5.93232 0.41697C5.77417 0.117428 5.44483 -0.0459849 5.11459 0.0113674C4.78435 0.0687197 4.52728 0.333792 4.47638 0.669659L0.262253 28.0268L11.5323 34.4343C12.24 34.835 13.1019 34.835 13.8096 34.4343L25.177 28.0268L21.9478 7.76204V7.76209Z" fill="url(#paint0_linear_272_441)"/>
</g>
<defs>
<linearGradient id="paint0_linear_272_441" x1="-0.60727" y1="5.91186" x2="30.6316" y2="22.2103" gradientUnits="userSpaceOnUse">
<stop stop-color="white" stop-opacity="0.1"/>
<stop offset="0.14" stop-color="white" stop-opacity="0.08"/>
<stop offset="0.61" stop-color="white" stop-opacity="0.02"/>
<stop offset="1" stop-color="white" stop-opacity="0"/>
</linearGradient>
<clipPath id="clip0_272_441">
<rect width="123" height="35" fill="white"/>
</clipPath>
</defs>
</svg>
