<svg width="1170" height="333" viewBox="0 0 1170 333" fill="none" xmlns="http://www.w3.org/2000/svg">
<g clip-path="url(#clip0_469_612)">
<path d="M351.183 253.579H329.296V82.6582H428.694V103.657H351.185V159.773H421.098V180.287H351.185V253.579L351.183 253.579ZM469.847 107.257C464.63 112.516 456.437 113.343 450.282 109.23C444.126 105.118 441.723 97.2119 444.544 90.3508C447.365 83.4897 454.621 79.5843 461.875 81.0248C469.129 82.4652 474.358 88.8503 474.363 96.2721C474.433 100.406 472.792 104.384 469.829 107.257H469.848H469.847ZM469.847 253.579H447.961V136.611H469.847V253.579V253.579ZM517.874 253.579H495.988V136.611H516.908V155.708H517.856C520.383 148.978 525.236 143.385 531.53 139.949C537.541 136.076 544.492 133.928 551.633 133.739C557.238 133.579 562.817 134.556 568.038 136.611L559.715 157.125C555.961 155.871 552.016 155.303 548.065 155.446C540.04 155.487 532.402 158.912 527.015 164.883C520.909 171.174 517.856 179.411 517.856 189.593L517.874 253.579L517.874 253.579ZM628.011 257.308C610.411 257.308 596.105 251.421 585.094 239.649C574.083 227.877 568.571 213.024 568.558 195.096C568.235 178.954 573.964 163.28 584.611 151.177C594.807 139.131 609.891 132.37 625.633 132.787C642.912 132.787 656.746 138.438 667.139 149.739C677.531 161.04 682.72 176.159 682.705 195.094L682.464 199.16H590.405C591.036 210.933 594.962 220.258 602.184 227.133C608.937 233.787 618.045 237.476 627.504 237.391C643.198 237.391 653.819 230.705 659.368 217.343L678.876 225.455C674.923 234.703 668.402 242.615 660.093 248.244C651.361 254.287 640.665 257.308 628.006 257.308L628.011 257.308ZM659.41 180.847C658.939 174.158 655.886 167.792 650.251 161.75C644.615 155.707 636.236 152.748 625.113 152.873C617.399 152.737 609.905 155.459 604.063 160.519C597.943 165.902 593.661 173.077 591.819 181.033L659.41 180.846L659.41 180.847ZM761.781 257.308C753.5 257.473 745.311 255.55 737.962 251.714C731.51 248.447 726.049 243.5 722.152 237.391H721.204V253.579H700.266V82.6582H722.152V136.611L721.205 152.836H722.152C726.049 146.726 731.509 141.78 737.963 138.513C745.3 134.633 753.49 132.664 761.781 132.788C776.842 132.788 789.848 138.756 800.797 150.691C811.747 162.627 817.215 177.428 817.203 195.095C817.191 212.762 811.734 227.563 800.797 239.499C789.86 251.434 776.855 257.371 761.781 257.309L761.781 257.308ZM758.213 237.26C768.183 237.34 777.709 233.123 784.373 225.679C791.668 217.958 795.316 207.733 795.316 195.001C795.316 182.27 791.668 172.044 784.373 164.323C777.632 156.968 768.138 152.774 758.182 152.752C748.226 152.731 738.714 156.885 731.942 164.211C724.734 171.844 721.129 182.108 721.129 195.001C721.129 207.893 724.771 218.188 732.053 225.884C738.759 233.3 748.31 237.475 758.287 237.353L758.213 237.26L758.213 237.26ZM872.921 257.308C860.535 257.308 850.192 253.728 841.894 246.567C833.595 239.406 829.434 229.938 829.409 218.164C829.409 205.433 834.326 195.449 844.161 188.213C853.995 180.977 866.121 177.359 880.538 177.359C893.383 177.359 903.913 179.746 912.123 184.52V181.182C912.436 173.32 909.201 165.736 903.317 160.538C897.324 155.357 889.613 152.622 881.709 152.873C875.66 152.797 869.702 154.361 864.468 157.405C859.564 160.131 855.804 164.541 853.878 169.825L833.905 161.228C836.606 154.203 841.919 147.688 849.871 141.683C857.823 135.678 868.265 132.694 881.27 132.732C896.133 132.732 908.519 137.083 918.428 145.786C928.337 154.489 933.254 166.822 933.18 182.786V253.579H912.185V237.354H911.238C902.507 250.657 889.742 257.283 872.947 257.283L872.921 257.308ZM876.488 237.26C885.685 237.228 894.513 233.626 901.124 227.208C908.17 221.246 912.247 212.476 912.271 203.225C906.078 198.128 896.789 195.579 884.403 195.579C873.775 195.579 865.768 197.885 860.38 202.498C855.352 206.378 852.373 212.357 852.298 218.723C852.196 224.262 855.024 229.444 859.732 232.336C864.682 235.677 870.527 237.426 876.491 237.353V237.26L876.488 237.26ZM997.531 257.308C984.526 257.308 973.787 254.125 965.315 247.76C957.072 241.649 950.648 233.395 946.736 223.889L966.244 215.776C972.437 230.422 982.965 237.745 997.829 237.745C1003.73 237.988 1009.57 236.406 1014.55 233.214C1018.66 230.654 1021.14 226.13 1021.09 221.278C1021.09 213.644 1015.78 208.472 1005.12 205.762L981.584 200.036C973.838 197.979 966.622 194.278 960.423 189.183C953.824 184.017 950.104 175.98 950.427 167.587C950.427 157.244 954.985 148.851 964.101 142.41C973.637 135.84 984.996 132.459 996.559 132.75C1006.21 132.595 1015.73 135.035 1024.13 139.818C1032.06 144.336 1038.19 151.464 1041.48 159.996L1022.48 167.792C1018.2 157.449 1009.32 152.275 995.834 152.275C990.096 152.084 984.419 153.491 979.429 156.341C975.341 158.467 972.776 162.704 972.778 167.326C972.778 174.014 977.93 178.552 988.235 180.939L1011.29 186.441C1022.23 188.928 1030.32 193.279 1035.56 199.495C1040.63 205.303 1043.42 212.77 1043.4 220.494C1043.5 230.793 1038.74 240.533 1030.56 246.753C1022 253.789 1010.98 257.308 997.507 257.308L997.531 257.308ZM1115.25 257.308C1097.65 257.308 1083.34 251.421 1072.33 239.649C1061.32 227.877 1055.81 212.991 1055.79 195.001C1055.47 178.859 1061.2 163.185 1071.85 151.082C1082.08 139.067 1097.18 132.342 1112.92 132.788C1130.26 132.788 1144.1 138.439 1154.43 149.74C1164.76 161.041 1169.95 176.16 1170 195.095L1169.76 199.16H1077.62C1078.25 210.934 1082.18 220.259 1089.4 227.134C1096.17 233.788 1105.31 237.465 1114.78 237.354C1130.47 237.354 1141.09 230.668 1146.64 217.306L1166.15 225.418C1162.2 234.667 1155.68 242.578 1147.37 248.207C1138.64 254.274 1127.93 257.308 1115.25 257.308L1115.25 257.308ZM1146.65 180.847C1146.18 174.158 1143.12 167.792 1137.49 161.75C1131.85 155.707 1123.48 152.748 1112.39 152.873C1104.67 152.739 1097.18 155.461 1091.34 160.519C1085.22 165.902 1080.93 173.077 1079.09 181.033L1146.65 180.846V180.847Z" fill="#1A1A1C"/>
<path d="M2.07886 266.699L42.3234 6.28306C42.8153 3.08929 45.2716 0.571609 48.4228 0.0302317C51.5741 -0.511146 54.7144 1.04639 56.2212 3.89682L97.841 82.3973L114.431 50.4558C115.715 47.986 118.248 46.4396 121.008 46.4396C123.768 46.4396 126.3 47.986 127.585 50.4558L239.902 266.699H2.07886V266.699Z" fill="#FFA000"/>
<path d="M141.114 165.257L97.822 82.3599L2.0791 266.699L141.114 165.257Z" fill="#F57C00"/>
<path d="M239.904 266.699L209.08 73.8109C208.614 71.0409 206.659 68.7654 204.012 67.9077C201.364 67.05 198.467 67.7639 196.501 69.7498L2.0791 266.697L109.658 327.705C116.413 331.519 124.641 331.519 131.396 327.705L239.904 266.697V266.699Z" fill="#FFCA28"/>
<path d="M209.079 73.8109C208.614 71.041 206.659 68.7655 204.011 67.9077C201.364 67.05 198.467 67.7639 196.501 69.7498L157.912 108.871L127.569 50.4545C126.284 47.9847 123.751 46.4383 120.991 46.4383C118.231 46.4383 115.699 47.9847 114.414 50.4545L97.8241 82.396L56.2023 3.89681C54.693 1.04562 51.549 -0.509386 48.394 0.0360278C45.239 0.581441 42.7909 3.10543 42.3045 6.30173L2.0787 266.699H1.94897L2.0787 266.85L3.13768 267.376L196.445 71.6689C198.41 69.6721 201.314 68.9544 203.969 69.8096C206.623 70.6648 208.581 72.9492 209.042 75.7272L239.606 266.887L239.904 266.699L209.08 73.8104L209.079 73.8109ZM2.43169 266.342L42.3232 8.14332C42.8092 4.94702 45.2629 2.42303 48.4152 1.87762C51.5674 1.3322 54.7117 2.88671 56.2235 5.7384L97.8408 84.2388L114.43 52.2973C115.715 49.8276 118.248 48.2812 121.008 48.2812C123.768 48.2812 126.3 49.8276 127.585 52.2973L157.313 109.472L2.42995 266.342H2.43169Z" fill="white" fill-opacity="0.2"/>
<path opacity="0.2" d="M131.396 325.866C124.641 329.681 116.413 329.681 109.658 325.866L2.33905 265.028L2.07886 266.7L109.658 327.69C116.413 331.504 124.64 331.504 131.396 327.69L239.904 266.7L239.625 264.972L131.396 325.867V325.866Z" fill="#A52714"/>
<path d="M208.771 73.8509C208.307 71.0817 206.359 68.8054 203.721 67.9527C201.083 67.1 198.196 67.8089 196.237 69.7943L157.781 108.896L127.546 50.5063C126.265 48.0376 123.741 46.4916 120.991 46.4916C118.242 46.4916 115.718 48.0376 114.437 50.5063L97.9033 82.4339L56.4294 3.96729C54.9251 1.11737 51.7923 -0.437391 48.651 0.108275C45.5097 0.65394 43.0644 3.17591 42.5802 6.37145L2.49463 266.655L109.697 327.617C116.429 331.43 124.628 331.43 131.36 327.617L239.488 266.655L208.771 73.8504V73.8509Z" fill="url(#paint0_linear_469_612)"/>
</g>
<defs>
<linearGradient id="paint0_linear_469_612" x1="-5.77645" y1="56.2473" x2="291.401" y2="211.262" gradientUnits="userSpaceOnUse">
<stop stop-color="white" stop-opacity="0.1"/>
<stop offset="0.14" stop-color="white" stop-opacity="0.08"/>
<stop offset="0.61" stop-color="white" stop-opacity="0.02"/>
<stop offset="1" stop-color="white" stop-opacity="0"/>
</linearGradient>
<clipPath id="clip0_469_612">
<rect width="1170" height="333" fill="white"/>
</clipPath>
</defs>
</svg>
