<svg width="2232" height="2500" viewBox="0 0 2232 2500" fill="none" xmlns="http://www.w3.org/2000/svg">
<g clip-path="url(#clip0_506_75)">
<path d="M764.008 1518.52C850.188 1518.52 920.053 1588.38 920.053 1674.56V2343.95C920.053 2430.13 850.188 2499.99 764.008 2499.99C677.838 2499.99 607.974 2430.13 607.974 2343.95V1674.56C607.974 1588.39 677.838 1518.53 764.008 1518.53V1518.52Z" fill="white"/>
<path d="M407.77 713.726C407.255 719.643 406.806 725.625 406.806 731.674V1745.86C406.806 1854.93 493.139 1942.8 600.314 1942.8H1631.67C1738.86 1942.8 1825.19 1854.92 1825.19 1745.86V731.674C1825.19 725.625 1824.98 719.621 1824.47 713.726H407.77Z" fill="white"/>
<path d="M1765.42 16.4365L1600.81 301.55M466.601 16.4365L631.204 301.55L466.601 16.4365Z" stroke="white" stroke-width="32.8724" stroke-linecap="round" stroke-linejoin="round"/>
<path fill-rule="evenodd" clip-rule="evenodd" d="M1624.05 1674.56C1624.05 1588.38 1554.18 1518.52 1468 1518.52V1518.53C1381.83 1518.53 1311.97 1588.39 1311.97 1674.56V2343.96C1311.97 2430.14 1381.83 2499.99 1468 2499.99C1554.18 2499.99 1624.05 2430.14 1624.05 2343.96V1674.56ZM312.122 960.028C312.122 873.847 242.257 803.982 156.088 803.982C69.8963 803.982 0.0315243 873.858 0.0424805 960.039V1629.43C0.0424805 1715.6 69.9072 1785.46 156.088 1785.46C242.257 1785.46 312.122 1715.6 312.122 1629.42V960.028ZM2231.97 960.028C2231.97 873.847 2162.1 803.982 2075.93 803.982C1989.75 803.982 1919.89 873.858 1919.89 960.039V1629.43C1919.89 1715.6 1989.75 1785.46 2075.93 1785.46C2162.1 1785.46 2231.97 1715.6 2231.97 1629.42V960.028ZM1037.58 46.5039C688.566 80.1652 416.667 335.584 412.328 647.104H1819.66C1815.32 335.606 1543.45 80.1762 1194.41 46.5039H1037.58ZM825.874 446.999C870.471 446.878 906.51 411.475 906.378 367.93V367.491C906.247 323.924 870 288.74 825.425 288.861C780.839 288.981 744.8 324.374 744.92 367.93V368.368C745.052 411.913 781.299 447.108 825.874 446.999ZM1428.49 446.999C1473.09 446.878 1509.13 411.475 1509 367.93V367.491C1508.86 323.924 1472.62 288.74 1428.04 288.861C1383.46 288.981 1347.42 324.374 1347.54 367.93V368.368C1347.67 411.913 1383.92 447.108 1428.49 446.999Z" fill="white"/>
</g>
<defs>
<clipPath id="clip0_506_75">
<rect width="2232" height="2500" fill="white"/>
</clipPath>
</defs>
</svg>
