<svg width="1120" height="273" viewBox="0 0 1120 273" fill="none" xmlns="http://www.w3.org/2000/svg">
<mask id="mask0_532_219" style="mask-type:luminance" maskUnits="userSpaceOnUse" x="-1" y="0" width="1121" height="273">
<path d="M1119.12 0.480713H-0.00170898V272.902H1119.12V0.480713Z" fill="white"/>
</mask>
<g mask="url(#mask0_532_219)">
<path d="M442.949 218.896H478.105L414.039 36.7554H373.285L309.22 218.896H344.375L359.395 174.042H427.84L442.949 218.896ZM368.349 147.461L392.97 74.159H394.37L418.991 147.461H368.349ZM512.884 138.881V218.896H480.724V82.3622H511.5V105.587H513.08C516.255 97.9407 521.282 91.8749 528.19 87.4045C535.097 82.9341 543.676 80.6914 553.834 80.6914C563.255 80.6914 571.457 82.7385 578.545 86.7573C585.543 90.7611 591.036 96.6463 594.859 104.293C598.772 111.939 600.638 121.181 600.547 132.078V218.896H568.372V136.925C568.372 127.788 566.039 120.699 561.283 115.476C556.528 110.343 550.087 107.739 541.794 107.739C536.196 107.739 531.169 108.944 526.775 111.472C522.396 113.896 519.04 117.448 516.511 122.099C514.194 126.674 512.884 132.259 512.884 138.881ZM671.506 272.902C659.948 272.902 650.06 271.322 641.753 268.236C633.461 265.166 626.839 260.966 621.797 255.743C616.756 250.52 613.219 244.74 611.353 238.404L640.353 231.404C641.663 234.114 643.529 236.718 646.042 239.337C648.555 241.941 651.911 244.183 656.11 245.96C660.309 247.736 665.712 248.563 672.153 248.563C681.288 248.563 688.843 246.321 694.817 241.941C700.792 237.561 703.772 230.291 703.772 220.206V194.377H702.192C700.506 197.734 698.083 201.09 694.923 204.642C691.747 208.18 687.564 211.07 682.432 213.403C677.21 215.736 670.768 216.94 662.943 216.94C652.498 216.94 642.987 214.426 634.409 209.474C625.921 204.537 619.118 197.071 614.167 187.273C609.126 177.384 606.612 165.071 606.612 150.155C606.612 135.239 609.126 122.46 614.167 112.104C619.209 101.749 625.921 93.9219 634.499 88.5033C643.077 83.0997 652.589 80.4807 663.033 80.4807C671.054 80.4807 677.676 81.7902 682.808 84.4845C688.03 87.1938 692.139 90.46 695.209 94.1778C698.279 97.9106 700.611 101.448 702.207 104.804H703.983V82.2418H735.692V221.019C735.692 232.684 732.893 242.377 727.294 250.024C721.696 257.67 714.141 263.359 704.449 267.182C694.727 271.036 683.726 272.902 671.506 272.902ZM671.792 191.668C678.594 191.668 684.388 189.982 689.234 186.731C693.99 183.374 697.722 178.618 700.145 172.462C702.658 166.215 703.877 158.75 703.877 150.08C703.877 141.41 702.658 133.944 700.145 127.517C697.722 121.075 694.08 116.048 689.324 112.405C684.569 108.853 678.699 107.002 671.792 107.002C664.884 107.002 658.638 108.868 653.792 112.601C649.037 116.334 645.395 121.467 642.972 127.894C640.549 134.426 639.33 141.786 639.33 149.99C639.33 158.193 640.534 165.658 643.062 171.905C645.485 178.151 649.127 182.998 653.973 186.46C658.744 189.892 664.703 191.668 671.792 191.668ZM833.122 161.459V82.3772H865.298V218.912H834.055V194.663H832.656C829.585 202.309 824.544 208.556 817.455 213.403C810.457 218.249 801.789 220.673 791.525 220.673C782.571 220.673 774.64 218.716 767.837 214.697C761.035 210.693 755.617 204.898 751.795 197.162C747.972 189.515 746.016 180.183 746.016 169.271V82.3471H778.282V164.319C778.282 172.989 780.614 179.897 785.37 184.925C790.126 190.057 796.371 192.571 804.016 192.571C808.772 192.571 813.347 191.457 817.817 189.124C822.286 186.791 825.928 183.344 828.818 178.769C831.722 174.133 833.122 168.353 833.122 161.459ZM908.008 36.7705V218.912H875.832V36.7705H908.008ZM959.101 221.606C950.433 221.606 942.682 220.025 935.789 216.94C928.882 213.869 923.389 209.203 919.476 203.137C915.473 197.071 913.501 189.515 913.501 180.575C913.501 172.838 914.901 166.486 917.79 161.459C920.68 156.417 924.502 152.413 929.454 149.342C934.39 146.362 939.898 144.029 946.144 142.434C952.299 140.853 958.725 139.724 965.347 138.987C973.368 138.144 979.794 137.406 984.836 136.744C989.772 136.097 993.414 134.968 995.747 133.568C997.989 132.078 999.193 129.835 999.193 126.765V126.208C999.193 119.495 997.237 114.362 993.218 110.629C989.215 106.987 983.526 105.12 976.062 105.12C968.131 105.12 961.976 106.806 957.325 110.253C952.75 113.7 949.68 117.719 947.995 122.475L917.971 118.185C920.304 109.892 924.217 102.983 929.725 97.2935C935.127 91.6943 941.854 87.5099 949.68 84.7102C957.611 81.9106 966.28 80.5108 975.791 80.5108C982.413 80.5108 988.944 81.2634 995.461 82.8438C1001.98 84.4243 1007.95 86.9529 1013.37 90.4901C1018.77 94.0273 1023.06 98.7836 1026.42 104.849C1029.68 110.915 1031.35 118.471 1031.35 127.517V218.912H1000.4V200.157H999.374C997.417 203.98 994.708 207.517 991.172 210.784C987.635 214.05 983.24 216.759 977.928 218.716C972.435 220.673 966.28 221.606 959.101 221.606ZM967.499 198.02C973.94 198.02 979.523 196.71 984.279 194.197C989.035 191.593 992.677 188.221 995.28 183.931C997.899 179.642 999.103 174.976 999.103 169.948V153.813C998.079 154.656 996.394 155.393 993.971 156.146C991.548 156.898 988.929 157.455 985.949 158.012C982.97 158.569 980.08 159.036 977.191 159.412C974.301 159.788 971.788 160.165 969.636 160.436C964.88 161.083 960.501 162.106 956.768 163.611C952.946 165.102 949.966 167.164 947.814 169.768C945.572 172.372 944.548 175.833 944.548 179.928C944.548 185.903 946.7 190.373 951.08 193.354C955.279 196.515 960.787 198.02 967.499 198.02ZM1041.17 218.896V82.3622H1072.41V105.12H1073.81C1076.32 97.1881 1080.61 91.1373 1086.68 86.8476C1092.74 82.5579 1099.74 80.4205 1107.56 80.4205C1109.34 80.4205 1111.39 80.5108 1113.54 80.6011C1115.78 80.7818 1117.65 80.9774 1119.14 81.2484V110.81C1117.74 110.343 1115.6 109.877 1112.7 109.5C1109.88 109.139 1107.05 108.944 1104.21 108.944C1098.34 108.944 1093.12 110.253 1088.45 112.767C1083.79 115.28 1080.16 118.742 1077.45 123.213C1074.74 127.683 1073.45 132.816 1073.45 138.595V218.896H1041.17ZM253.085 45.1543L243.95 188.688L156.573 0.480713L253.085 45.1543ZM192.571 230.742L126.549 268.417L60.5273 230.742L73.9514 198.2H179.147L192.571 230.742ZM126.549 71.9313L161.148 156.055H91.9506C91.9506 156.04 126.549 71.9313 126.549 71.9313ZM9.04303 188.688L-0.00170898 45.1543L96.5106 0.480713L9.04303 188.688Z" fill="url(#paint0_linear_532_219)"/>
<path d="M442.949 218.896H478.105L414.039 36.7554H373.285L309.22 218.896H344.375L359.395 174.042H427.84L442.949 218.896ZM368.349 147.461L392.97 74.159H394.37L418.991 147.461H368.349ZM512.884 138.881V218.896H480.724V82.3622H511.5V105.587H513.08C516.255 97.9407 521.282 91.8749 528.19 87.4045C535.097 82.9341 543.676 80.6914 553.834 80.6914C563.255 80.6914 571.457 82.7385 578.545 86.7573C585.543 90.7611 591.036 96.6463 594.859 104.293C598.772 111.939 600.638 121.181 600.547 132.078V218.896H568.372V136.925C568.372 127.788 566.039 120.699 561.283 115.476C556.528 110.343 550.087 107.739 541.794 107.739C536.196 107.739 531.169 108.944 526.775 111.472C522.396 113.896 519.04 117.448 516.511 122.099C514.194 126.674 512.884 132.259 512.884 138.881ZM671.506 272.902C659.948 272.902 650.06 271.322 641.753 268.236C633.461 265.166 626.839 260.966 621.797 255.743C616.756 250.52 613.219 244.74 611.353 238.404L640.353 231.404C641.663 234.114 643.529 236.718 646.042 239.337C648.555 241.941 651.911 244.183 656.11 245.96C660.309 247.736 665.712 248.563 672.153 248.563C681.288 248.563 688.843 246.321 694.817 241.941C700.792 237.561 703.772 230.291 703.772 220.206V194.377H702.192C700.506 197.734 698.083 201.09 694.923 204.642C691.747 208.18 687.564 211.07 682.432 213.403C677.21 215.736 670.768 216.94 662.943 216.94C652.498 216.94 642.987 214.426 634.409 209.474C625.921 204.537 619.118 197.071 614.167 187.273C609.126 177.384 606.612 165.071 606.612 150.155C606.612 135.239 609.126 122.46 614.167 112.104C619.209 101.749 625.921 93.9219 634.499 88.5033C643.077 83.0997 652.589 80.4807 663.033 80.4807C671.054 80.4807 677.676 81.7902 682.808 84.4845C688.03 87.1938 692.139 90.46 695.209 94.1778C698.279 97.9106 700.611 101.448 702.207 104.804H703.983V82.2418H735.692V221.019C735.692 232.684 732.893 242.377 727.294 250.024C721.696 257.67 714.141 263.359 704.449 267.182C694.727 271.036 683.726 272.902 671.506 272.902ZM671.792 191.668C678.594 191.668 684.388 189.982 689.234 186.731C693.99 183.374 697.722 178.618 700.145 172.462C702.658 166.215 703.877 158.75 703.877 150.08C703.877 141.41 702.658 133.944 700.145 127.517C697.722 121.075 694.08 116.048 689.324 112.405C684.569 108.853 678.699 107.002 671.792 107.002C664.884 107.002 658.638 108.868 653.792 112.601C649.037 116.334 645.395 121.467 642.972 127.894C640.549 134.426 639.33 141.786 639.33 149.99C639.33 158.193 640.534 165.658 643.062 171.905C645.485 178.151 649.127 182.998 653.973 186.46C658.744 189.892 664.703 191.668 671.792 191.668ZM833.122 161.459V82.3772H865.298V218.912H834.055V194.663H832.656C829.585 202.309 824.544 208.556 817.455 213.403C810.457 218.249 801.789 220.673 791.525 220.673C782.571 220.673 774.64 218.716 767.837 214.697C761.035 210.693 755.617 204.898 751.795 197.162C747.972 189.515 746.016 180.183 746.016 169.271V82.3471H778.282V164.319C778.282 172.989 780.614 179.897 785.37 184.925C790.126 190.057 796.371 192.571 804.016 192.571C808.772 192.571 813.347 191.457 817.817 189.124C822.286 186.791 825.928 183.344 828.818 178.769C831.722 174.133 833.122 168.353 833.122 161.459ZM908.008 36.7705V218.912H875.832V36.7705H908.008ZM959.101 221.606C950.433 221.606 942.682 220.025 935.789 216.94C928.882 213.869 923.389 209.203 919.476 203.137C915.473 197.071 913.501 189.515 913.501 180.575C913.501 172.838 914.901 166.486 917.79 161.459C920.68 156.417 924.502 152.413 929.454 149.342C934.39 146.362 939.898 144.029 946.144 142.434C952.299 140.853 958.725 139.724 965.347 138.987C973.368 138.144 979.794 137.406 984.836 136.744C989.772 136.097 993.414 134.968 995.747 133.568C997.989 132.078 999.193 129.835 999.193 126.765V126.208C999.193 119.495 997.237 114.362 993.218 110.629C989.215 106.987 983.526 105.12 976.062 105.12C968.131 105.12 961.976 106.806 957.325 110.253C952.75 113.7 949.68 117.719 947.995 122.475L917.971 118.185C920.304 109.892 924.217 102.983 929.725 97.2935C935.127 91.6943 941.854 87.5099 949.68 84.7102C957.611 81.9106 966.28 80.5108 975.791 80.5108C982.413 80.5108 988.944 81.2634 995.461 82.8438C1001.98 84.4243 1007.95 86.9529 1013.37 90.4901C1018.77 94.0273 1023.06 98.7836 1026.42 104.849C1029.68 110.915 1031.35 118.471 1031.35 127.517V218.912H1000.4V200.157H999.374C997.417 203.98 994.708 207.517 991.172 210.784C987.635 214.05 983.24 216.759 977.928 218.716C972.435 220.673 966.28 221.606 959.101 221.606ZM967.499 198.02C973.94 198.02 979.523 196.71 984.279 194.197C989.035 191.593 992.677 188.221 995.28 183.931C997.899 179.642 999.103 174.976 999.103 169.948V153.813C998.079 154.656 996.394 155.393 993.971 156.146C991.548 156.898 988.929 157.455 985.949 158.012C982.97 158.569 980.08 159.036 977.191 159.412C974.301 159.788 971.788 160.165 969.636 160.436C964.88 161.083 960.501 162.106 956.768 163.611C952.946 165.102 949.966 167.164 947.814 169.768C945.572 172.372 944.548 175.833 944.548 179.928C944.548 185.903 946.7 190.373 951.08 193.354C955.279 196.515 960.787 198.02 967.499 198.02ZM1041.17 218.896V82.3622H1072.41V105.12H1073.81C1076.32 97.1881 1080.61 91.1373 1086.68 86.8476C1092.74 82.5579 1099.74 80.4205 1107.56 80.4205C1109.34 80.4205 1111.39 80.5108 1113.54 80.6011C1115.78 80.7818 1117.65 80.9774 1119.14 81.2484V110.81C1117.74 110.343 1115.6 109.877 1112.7 109.5C1109.88 109.139 1107.05 108.944 1104.21 108.944C1098.34 108.944 1093.12 110.253 1088.45 112.767C1083.79 115.28 1080.16 118.742 1077.45 123.213C1074.74 127.683 1073.45 132.816 1073.45 138.595V218.896H1041.17ZM253.085 45.1543L243.95 188.688L156.573 0.480713L253.085 45.1543ZM192.571 230.742L126.549 268.417L60.5273 230.742L73.9514 198.2H179.147L192.571 230.742ZM126.549 71.9313L161.148 156.055H91.9506C91.9506 156.04 126.549 71.9313 126.549 71.9313ZM9.04303 188.688L-0.00170898 45.1543L96.5106 0.480713L9.04303 188.688Z" fill="url(#paint1_radial_532_219)"/>
</g>
<defs>
<linearGradient id="paint0_linear_532_219" x1="-0.00231096" y1="136.694" x2="1119.13" y2="136.694" gradientUnits="userSpaceOnUse">
<stop stop-color="#F0070C"/>
<stop offset="0.526" stop-color="#CC26D5"/>
<stop offset="1" stop-color="#7702FF"/>
</linearGradient>
<radialGradient id="paint1_radial_532_219" cx="0" cy="0" r="1" gradientUnits="userSpaceOnUse" gradientTransform="translate(348.192 -69.6323) rotate(118.118) scale(234.57 234.551)">
<stop stop-color="#FF41F8"/>
<stop offset="0.707" stop-color="#FF41F8" stop-opacity="0.5"/>
<stop offset="1" stop-color="#FF41F8" stop-opacity="0"/>
</radialGradient>
</defs>
</svg>
