<svg width="1155" height="334" viewBox="0 0 1155 334" fill="none" xmlns="http://www.w3.org/2000/svg">
<g clip-path="url(#clip0_484_192)">
<mask id="mask0_484_192" style="mask-type:luminance" maskUnits="userSpaceOnUse" x="0" y="0" width="1155" height="334">
<path d="M1155 0H0V334H1155V0Z" fill="white"/>
</mask>
<g mask="url(#mask0_484_192)">
<path d="M165.166 5.02165L264.147 4.91113L98.0843 173.078L54.805 216.682L5.56299 166.729L165.166 5.02165ZM164.245 155.174C165.53 153.455 167.893 154.302 169.687 154.082L264.063 154.106L178.049 241.167L128.553 191.325L164.245 155.174Z" fill="#44D1FD"/>
<path d="M403.269 75.1616L511.17 75.1985L511.157 96.7245C482.93 96.7245 454.692 96.6386 426.453 96.7607C424.295 97.486 425.314 100.224 425.071 101.906L425.156 159.804C425.871 161.977 428.586 160.934 430.258 161.204L502.686 161.166V182.667C480.167 182.656 457.662 182.656 435.143 182.667C431.798 182.656 428.416 182.447 425.108 183.024L424.853 264.756C417.594 264.461 410.346 264.731 403.086 264.572L403.074 78.6367L403.269 75.1616ZM537.336 75.1985H559.491L559.502 203.837L559.26 264.412C552.049 264.277 544.837 264.24 537.638 264.436C537.081 261.44 537.312 258.395 537.312 255.374L537.336 75.1985ZM754.18 91.1494L776.407 91.1617L776.443 129.227C787.315 129.498 798.247 128.737 809.094 129.608C808.791 136.436 809.045 143.263 808.924 150.091C798.114 150.115 787.315 150.201 776.516 150.041L776.431 225.855C776.662 232.878 778.141 241.364 784.879 244.986C792.575 249.419 802.028 247.332 809.312 243.058V265.112C801.288 268.796 792.138 269.237 783.521 268.046C771.378 266.167 759.743 257.781 756.071 245.587C753.635 238.907 754.192 231.7 754.143 224.725L754.095 150.889L753.55 150.263C745.878 149.845 738.181 150.324 730.498 150.054C730.547 143.104 730.231 136.154 730.668 129.216C738.473 129.08 746.314 129.572 754.107 128.97L754.18 91.1494ZM848.083 91.0758C855.476 91.3336 862.869 90.9898 870.25 91.2476L870.758 91.8125C871.037 104.313 870.383 116.85 871.049 129.326C881.581 129.13 892.113 129.289 902.633 129.227L902.706 149.931C892.113 150.336 881.485 150.091 870.892 150.029L870.771 227.156C870.758 233.873 872.673 241.818 879.085 245.121C886.95 249.467 896.488 247.233 903.797 242.787L903.772 264.964C895.979 268.525 887.193 269.214 878.782 268.231C867.862 266.757 857.172 260.508 852.045 250.377C849.573 245.072 848.192 239.202 847.962 233.345V150.115C840.29 150.102 832.63 150.14 824.971 150.115L825.019 129.154C832.57 129.363 840.12 129.093 847.671 129.351C848.471 116.629 847.61 103.821 848.083 91.0758ZM955.968 129.94C971.317 123.493 989.024 123.371 1004.69 128.773C1022.64 135.049 1036.53 150.914 1041.62 169.32C1044.95 179.524 1044.82 190.367 1044.35 200.976L938.847 201.087C939.719 212.47 943.077 224.074 950.881 232.62C961.972 245.723 981.063 250.585 997.175 245.44C1008.49 242.063 1017.31 233.246 1023.11 223.117C1029.53 226.026 1035.78 229.342 1042.18 232.326C1033.43 249.222 1017.52 262.643 998.817 266.278C983.459 269.189 966.659 269.262 952.578 261.575C934.301 252.378 921.722 233.652 918.134 213.514C915.528 198.042 916.341 181.673 922.085 166.987C928.108 150.864 940.289 136.903 955.968 129.94ZM964.32 149.354C951.415 155.395 943.1 168.817 940.507 182.667L1021.42 182.41C1020.13 173.36 1016.95 164.163 1010.41 157.617C998.951 145.167 979.354 142.735 964.32 149.354ZM1092.38 151.134C1100.83 130.345 1126.77 119.429 1147.3 128.135V152.399C1138.68 148.961 1129.02 146.837 1119.91 149.55C1107.48 153.295 1098.28 164.531 1094.75 176.897C1092.33 185.247 1093.24 193.965 1093.34 202.523C1092.39 213.6 1093.8 224.688 1093.1 235.764C1093.67 245.33 1092.58 254.895 1093.38 264.474C1085.84 264.842 1078.31 264.449 1070.78 264.706C1070.34 235.837 1070.72 206.957 1070.6 178.075L1070.77 129.461C1077.83 129.658 1084.91 129.436 1091.99 129.608C1092.63 136.78 1091.2 143.987 1092.38 151.134ZM591.267 129.191C598.782 129.51 606.357 128.737 613.835 129.596L613.726 210.075C613.652 219.911 615.035 230.656 621.749 238.294C630.414 248.019 645.091 249.8 656.944 245.956C672.785 240.209 683.837 223.214 683.195 206.22L683.437 129.191L706.065 129.24L705.931 264.375C698.757 264.252 691.594 264.375 684.431 264.289L684.347 245.06C679.705 250.966 674.833 256.946 668.179 260.667C654.557 269.373 637.274 270.527 622.015 266.07C612.174 263.061 603.606 256.074 598.673 246.939C592.82 236.894 591.341 225.02 591.001 213.575L591.267 129.191Z" fill="#FFFFFA"/>
<path d="M79.2136 241.254L128.552 191.326L178.049 241.167L178.256 241.388L128.565 291.268L79.2136 241.254Z" fill="#1FBCFD"/>
<path d="M128.565 291.267L178.256 241.388L264.099 328.449C231.764 328.523 199.441 328.425 167.118 328.498C165.276 328.916 164.136 327.209 162.961 326.153L128.565 291.267Z" fill="#08589C"/>
</g>
</g>
<defs>
<clipPath id="clip0_484_192">
<rect width="1155" height="334" fill="white"/>
</clipPath>
</defs>
</svg>
