<svg width="121" height="35" viewBox="0 0 121 35" fill="none" xmlns="http://www.w3.org/2000/svg">
<path d="M17.3031 0.526229L27.6726 0.514648L10.2755 18.1369L5.74148 22.7062L0.582794 17.4716L17.3031 0.526229ZM17.2066 16.2608C17.3412 16.0806 17.5888 16.1694 17.7767 16.1463L27.6637 16.1488L18.6528 25.272L13.4675 20.049L17.2066 16.2608Z" fill="#44D1FD"/>
<path d="M42.2472 7.87634L53.5511 7.8802L53.5498 10.1359C50.5927 10.1359 47.6344 10.1269 44.676 10.1398C44.45 10.2157 44.5567 10.5026 44.5313 10.6789L44.5402 16.746C44.6151 16.9738 44.8995 16.8644 45.0747 16.8927L52.6623 16.8888V19.142C50.3032 19.1407 47.9455 19.1407 45.5864 19.142C45.236 19.1407 44.8817 19.1188 44.5351 19.1793L44.5084 27.744C43.7479 27.7131 42.9886 27.7414 42.2281 27.7247L42.2268 8.2405L42.2472 7.87634ZM56.2923 7.8802H58.6133L58.6145 21.3604L58.5891 27.708C57.8337 27.6938 57.0782 27.69 56.324 27.7105C56.2656 27.3966 56.2898 27.0774 56.2898 26.7609L56.2923 7.8802ZM79.0093 9.55171L81.3379 9.553L81.3417 13.542C82.4806 13.5703 83.6259 13.4905 84.7622 13.5819C84.7305 14.2973 84.7571 15.0127 84.7444 15.7282C83.6119 15.7308 82.4806 15.7398 81.3493 15.723L81.3404 23.6675C81.3646 24.4036 81.5195 25.2927 82.2254 25.6723C83.0317 26.1368 84.022 25.9181 84.7851 25.4703V27.7813C83.9445 28.1673 82.9859 28.2137 82.0832 28.0888C80.811 27.892 79.5921 27.0131 79.2074 25.7354C78.9522 25.0354 79.0106 24.28 79.0055 23.5491L79.0004 15.8118L78.9433 15.7462C78.1396 15.7024 77.3333 15.7526 76.5284 15.7243C76.5335 14.996 76.5004 14.2677 76.5462 13.5407C77.3638 13.5265 78.1853 13.578 79.0017 13.5149L79.0093 9.55171ZM88.8468 9.54399C89.6213 9.57101 90.3958 9.53498 91.169 9.562L91.2223 9.6212C91.2515 10.9311 91.183 12.2449 91.2528 13.5523C92.3561 13.5317 93.4595 13.5484 94.5616 13.542L94.5692 15.7115C93.4595 15.7539 92.346 15.7282 91.2363 15.7217L91.2236 23.8039C91.2223 24.5078 91.4229 25.3403 92.0946 25.6865C92.9186 26.142 93.9178 25.9078 94.6835 25.442L94.6809 27.7659C93.8645 28.139 92.944 28.2111 92.0629 28.1081C90.9189 27.9537 89.799 27.2988 89.2619 26.2372C89.0029 25.6813 88.8582 25.0662 88.8341 24.4524V15.7308C88.0304 15.7295 87.2279 15.7333 86.4255 15.7308L86.4306 13.5342C87.2216 13.5561 88.0126 13.5278 88.8036 13.5548C88.8874 12.2217 88.7972 10.8797 88.8468 9.54399ZM100.149 13.6166C101.757 12.941 103.612 12.9282 105.253 13.4944C107.134 14.1519 108.589 15.8144 109.122 17.7433C109.471 18.8126 109.457 19.9488 109.408 21.0605L98.3554 21.0721C98.4468 22.2649 98.7985 23.4809 99.6161 24.3765C100.778 25.7495 102.778 26.2591 104.466 25.7199C105.651 25.3661 106.575 24.4422 107.183 23.3806C107.856 23.6855 108.51 24.033 109.181 24.3456C108.264 26.1162 106.597 27.5227 104.638 27.9036C103.029 28.2085 101.269 28.2162 99.7939 27.4107C97.8792 26.4469 96.5613 24.4846 96.1855 22.3743C95.9125 20.753 95.9976 19.0377 96.5994 17.4988C97.2304 15.8092 98.5065 14.3462 100.149 13.6166ZM101.024 15.651C99.672 16.2841 98.801 17.6905 98.5293 19.142L107.006 19.1149C106.871 18.1666 106.538 17.2028 105.853 16.517C104.652 15.2122 102.599 14.9574 101.024 15.651ZM114.44 15.8376C115.325 13.6591 118.043 12.5151 120.193 13.4274V15.9701C119.29 15.6098 118.278 15.3872 117.324 15.6716C116.022 16.064 115.058 17.2414 114.688 18.5372C114.435 19.4122 114.53 20.3258 114.54 21.2227C114.441 22.3833 114.589 23.5453 114.515 24.7059C114.575 25.7083 114.461 26.7107 114.545 27.7144C113.755 27.753 112.966 27.7118 112.177 27.7388C112.131 24.7137 112.171 21.6872 112.158 18.6607L112.176 13.5664C112.916 13.587 113.657 13.5638 114.399 13.5819C114.466 14.3333 114.316 15.0887 114.44 15.8376ZM61.9423 13.5381C62.7295 13.5716 63.5231 13.4905 64.3065 13.5806L64.2951 22.014C64.2874 23.0447 64.4322 24.1706 65.1356 24.971C66.0434 25.9901 67.581 26.1767 68.8227 25.774C70.4822 25.1717 71.6401 23.3909 71.5728 21.61L71.5982 13.5381L73.9687 13.5433L73.9547 27.7041C73.2031 27.6912 72.4527 27.7041 71.7023 27.6951L71.6935 25.68C71.2072 26.299 70.6968 26.9256 69.9997 27.3155C68.5726 28.2278 66.762 28.3488 65.1635 27.8817C64.1325 27.5664 63.2349 26.8343 62.7181 25.8769C62.1049 24.8243 61.95 23.58 61.9144 22.3808L61.9423 13.5381Z" fill="white"/>
<path d="M8.29858 25.2811L13.4674 20.0491L18.6528 25.272L18.6744 25.2952L13.4687 30.5221L8.29858 25.2811Z" fill="#1FBCFD"/>
<path d="M13.4687 30.522L18.6744 25.2952L27.6675 34.4183C24.28 34.4261 20.8938 34.4158 17.5076 34.4235C17.3146 34.4672 17.1952 34.2884 17.0721 34.1777L13.4687 30.522Z" fill="#08589C"/>
</svg>
