<svg width="121" height="35" viewBox="0 0 121 35" fill="none" xmlns="http://www.w3.org/2000/svg">
<g clip-path="url(#clip0_272_449)">
<path d="M17.3031 0.526229L27.6726 0.514648L10.2755 18.1369L5.74148 22.7062L0.582794 17.4716L17.3031 0.526229ZM17.2066 16.2608C17.3412 16.0806 17.5888 16.1694 17.7767 16.1463L27.6637 16.1488L18.6528 25.272L13.4675 20.049L17.2066 16.2608Z" fill="#44D1FD"/>
<path d="M42.2472 7.87622L53.5511 7.88008L53.5498 10.1358C50.5927 10.1358 47.6344 10.1268 44.676 10.1396C44.45 10.2156 44.5567 10.5025 44.5313 10.6788L44.5402 16.7459C44.6151 16.9736 44.8995 16.8643 45.0747 16.8926L52.6623 16.8887V19.1418C50.3032 19.1406 47.9455 19.1406 45.5864 19.1418C45.236 19.1406 44.8817 19.1187 44.5351 19.1792L44.5084 27.7439C43.7479 27.713 42.9886 27.7413 42.2281 27.7246L42.2268 8.24038L42.2472 7.87622ZM56.2923 7.88008H58.6133L58.6145 21.3602L58.5891 27.7078C57.8337 27.6937 57.0782 27.6898 56.324 27.7104C56.2656 27.3964 56.2898 27.0773 56.2898 26.7608L56.2923 7.88008ZM79.0093 9.55159L81.3379 9.55288L81.3417 13.5418C82.4806 13.5702 83.6259 13.4904 84.7622 13.5817C84.7305 14.2972 84.7571 15.0126 84.7444 15.7281C83.6119 15.7306 82.4806 15.7396 81.3493 15.7229L81.3404 23.6674C81.3646 24.4034 81.5195 25.2926 82.2254 25.6722C83.0317 26.1367 84.022 25.918 84.7851 25.4702V27.7812C83.9445 28.1672 82.9859 28.2135 82.0832 28.0887C80.811 27.8918 79.5921 27.013 79.2074 25.7352C78.9522 25.0352 79.0106 24.2799 79.0055 23.549L79.0004 15.8117L78.9433 15.7461C78.1396 15.7023 77.3333 15.7525 76.5284 15.7242C76.5335 14.9959 76.5004 14.2676 76.5462 13.5406C77.3638 13.5264 78.1853 13.5779 79.0017 13.5148L79.0093 9.55159ZM88.8468 9.54387C89.6213 9.57089 90.3958 9.53486 91.169 9.56188L91.2223 9.62107C91.2515 10.931 91.183 12.2448 91.2528 13.5521C92.3561 13.5316 93.4595 13.5483 94.5616 13.5418L94.5692 15.7113C93.4595 15.7538 92.346 15.7281 91.2363 15.7216L91.2236 23.8038C91.2223 24.5077 91.4229 25.3402 92.0946 25.6863C92.9186 26.1418 93.9178 25.9077 94.6835 25.4418L94.6809 27.7657C93.8645 28.1389 92.944 28.211 92.0629 28.108C90.9189 27.9536 89.799 27.2987 89.2619 26.2371C89.0029 25.6812 88.8582 25.0661 88.8341 24.4523V15.7306C88.0304 15.7293 87.2279 15.7332 86.4255 15.7306L86.4306 13.5341C87.2216 13.556 88.0126 13.5277 88.8036 13.5547C88.8874 12.2216 88.7972 10.8795 88.8468 9.54387ZM100.149 13.6165C101.757 12.9409 103.612 12.9281 105.253 13.4942C107.134 14.1518 108.589 15.8143 109.122 17.7431C109.471 18.8124 109.457 19.9486 109.408 21.0604L98.3554 21.072C98.4468 22.2648 98.7985 23.4808 99.6161 24.3764C100.778 25.7494 102.778 26.2589 104.466 25.7198C105.651 25.3659 106.575 24.442 107.183 23.3805C107.856 23.6854 108.51 24.0328 109.181 24.3455C108.264 26.1161 106.597 27.5225 104.638 27.9034C103.029 28.2084 101.269 28.2161 99.7939 27.4106C97.8792 26.4468 96.5613 24.4845 96.1855 22.3742C95.9125 20.7529 95.9976 19.0376 96.5994 17.4986C97.2304 15.8091 98.5065 14.3461 100.149 13.6165ZM101.024 15.6509C99.672 16.2839 98.801 17.6904 98.5293 19.1418L107.006 19.1148C106.871 18.1665 106.538 17.2027 105.853 16.5168C104.652 15.2121 102.599 14.9573 101.024 15.6509ZM114.44 15.8374C115.325 13.6589 118.043 12.515 120.193 13.4273V15.97C119.29 15.6097 118.278 15.3871 117.324 15.6714C116.022 16.0639 115.058 17.2413 114.688 18.5371C114.435 19.4121 114.53 20.3257 114.54 21.2225C114.441 22.3832 114.589 23.5452 114.515 24.7058C114.575 25.7082 114.461 26.7106 114.545 27.7143C113.755 27.7529 112.966 27.7117 112.177 27.7387C112.131 24.7135 112.171 21.6871 112.158 18.6606L112.176 13.5663C112.916 13.5869 113.657 13.5637 114.399 13.5817C114.466 14.3332 114.316 15.0885 114.44 15.8374ZM61.9423 13.538C62.7295 13.5714 63.5231 13.4904 64.3065 13.5804L64.2951 22.0139C64.2874 23.0446 64.4322 24.1705 65.1356 24.9709C66.0434 25.99 67.581 26.1766 68.8227 25.7738C70.4822 25.1716 71.6401 23.3907 71.5728 21.6099L71.5982 13.538L73.9687 13.5431L73.9547 27.704C73.2031 27.6911 72.4527 27.704 71.7023 27.695L71.6935 25.6799C71.2072 26.2988 70.6968 26.9255 69.9997 27.3154C68.5726 28.2277 66.762 28.3486 65.1635 27.8816C64.1325 27.5663 63.2349 26.8341 62.7181 25.8768C62.1049 24.8242 61.95 23.5799 61.9144 22.3806L61.9423 13.538Z" fill="#1D1D1F"/>
<path d="M8.29858 25.2811L13.4674 20.0491L18.6528 25.272L18.6744 25.2952L13.4687 30.5221L8.29858 25.2811Z" fill="#1FBCFD"/>
<path d="M13.4687 30.522L18.6744 25.2952L27.6675 34.4183C24.28 34.4261 20.8938 34.4158 17.5076 34.4235C17.3146 34.4672 17.1952 34.2884 17.0721 34.1777L13.4687 30.522Z" fill="#08589C"/>
</g>
<defs>
<clipPath id="clip0_272_449">
<rect width="121" height="35" fill="white"/>
</clipPath>
</defs>
</svg>
